<svg width="71" height="100" viewBox="0 0 71 100" fill="none" xmlns="http://www.w3.org/2000/svg">
<g clip-path="url(#clip0_316_339)">
<g clip-path="url(#clip1_316_339)">
<path d="M4.48928 40.4784C3.73474 37.7306 3.35059 34.8764 3.35059 32.0018C3.35059 18.879 11.5923 6.88003 23.8605 2.14832L25.469 6.31128C14.9088 10.3852 7.81612 20.7086 7.81612 32.0018C7.81612 34.479 8.14536 36.9322 8.79359 39.2963L4.48928 40.4784Z" fill="#58D09E"/>
<path d="M23.6461 2.2505C26.3 1.21286 29.0984 0.532471 31.9573 0.231986C45.0082 -1.13972 57.8029 5.80258 63.7911 17.509L59.8191 19.5438C54.6637 9.46734 43.6554 3.4926 32.4241 4.67306C29.9604 4.93199 27.5551 5.51586 25.2717 6.40766L23.6461 2.2505Z" fill="#58D09E"/>
<path d="M49.9978 55.2685C58.7122 49.7137 63.566 39.8557 62.6642 29.5475C62.3446 25.895 61.3309 22.4066 59.6562 19.1861L63.6132 17.1219C65.5607 20.866 66.7404 24.9148 67.1117 29.1584C68.1594 41.1339 62.5229 52.5821 52.3979 59.0351L49.9978 55.2685Z" fill="black"/>
<path d="M25.8532 25.3992C28.4425 25.3992 30.5518 26.78 31.6357 29.1887L31.7214 29.3772L36.0702 27.9004L35.9777 27.6778C34.2937 23.5764 30.4146 21.0272 25.8532 21.0272C22.6462 21.0272 20.0397 22.0552 17.8858 24.1658C15.7456 26.2627 14.6619 28.901 14.6619 32.0086C14.6619 35.0888 15.7456 37.7134 17.8858 39.8103C20.0397 41.921 22.6462 42.9488 25.8532 42.9488C30.4146 42.9488 34.2937 40.3996 35.9777 36.3018L36.0702 36.0791L31.7145 34.5988L31.6322 34.7942C30.6616 37.1618 28.5009 38.5768 25.8532 38.5768C24.049 38.5768 22.5262 37.9464 21.3189 36.706C20.098 35.4486 19.4806 33.8691 19.4806 32.012C19.4806 30.1412 20.0842 28.5926 21.3189 27.2768C22.5228 26.0298 24.049 25.3992 25.8532 25.3992Z" fill="black"/>
<path d="M53.0921 21.4316L46.8946 37.1138L40.656 21.4316H35.5525L44.3017 42.8358L38.0768 57.932L42.5389 58.8195L57.9144 21.4316H53.0921Z" fill="black"/>
<path d="M38.8751 55.9858L37.7879 58.6173C37.5718 59.1381 37.0779 59.4909 36.5223 59.5149C36.1554 59.5286 35.785 59.5389 35.4111 59.5389C22.6147 59.5321 11.2932 50.5106 8.48763 38.08L4.13184 39.0633C5.70609 46.0358 9.65717 52.3642 15.2579 56.887C20.9239 61.461 28.0611 63.9862 35.3631 64C35.3734 64 35.4282 64 35.4282 64C35.857 64 36.2822 63.9897 36.7075 63.9726C38.9986 63.8766 41.0462 62.441 41.9207 60.3133L43.3406 56.8733L38.8751 55.9858Z" fill="black"/>
</g>
<path d="M12.4699 84H10.8847C10.7909 83.544 10.6269 83.1435 10.3925 82.7983C10.1624 82.4531 9.88113 82.1634 9.54874 81.929C9.22061 81.6903 8.85627 81.5114 8.4557 81.392C8.05513 81.2727 7.63752 81.2131 7.20286 81.2131C6.41025 81.2131 5.69221 81.4134 5.04874 81.8139C4.40953 82.2145 3.9003 82.8047 3.52104 83.5845C3.14604 84.3643 2.95854 85.321 2.95854 86.4545C2.95854 87.5881 3.14604 88.5447 3.52104 89.3246C3.9003 90.1044 4.40953 90.6946 5.04874 91.0952C5.69221 91.4957 6.41025 91.696 7.20286 91.696C7.63752 91.696 8.05513 91.6364 8.4557 91.517C8.85627 91.3977 9.22061 91.2209 9.54874 90.9865C9.88113 90.7479 10.1624 90.456 10.3925 90.1108C10.6269 89.7614 10.7909 89.3608 10.8847 88.9091H12.4699C12.3506 89.5781 12.1333 90.1768 11.8179 90.7053C11.5026 91.2337 11.1105 91.6832 10.6418 92.054C10.173 92.4205 9.64675 92.6996 9.06294 92.8913C8.4834 93.0831 7.86337 93.179 7.20286 93.179C6.08638 93.179 5.09348 92.9062 4.22417 92.3608C3.35485 91.8153 2.6709 91.0398 2.17232 90.0341C1.67374 89.0284 1.42445 87.8352 1.42445 86.4545C1.42445 85.0739 1.67374 83.8807 2.17232 82.875C2.6709 81.8693 3.35485 81.0938 4.22417 80.5483C5.09348 80.0028 6.08638 79.7301 7.20286 79.7301C7.86337 79.7301 8.4834 79.826 9.06294 80.0178C9.64675 80.2095 10.173 80.4908 10.6418 80.8615C11.1105 81.228 11.5026 81.6754 11.8179 82.2038C12.1333 82.728 12.3506 83.3267 12.4699 84ZM15.7986 96.6818C15.5429 96.6818 15.3149 96.6605 15.1146 96.6179C14.9143 96.5795 14.7758 96.5412 14.6991 96.5028L15.0827 95.1733C15.4491 95.267 15.773 95.3011 16.0542 95.2756C16.3355 95.25 16.5848 95.1243 16.8021 94.8984C17.0237 94.6768 17.2261 94.3168 17.4094 93.8182L17.6906 93.0511L14.0599 83.1818H15.6963L18.4065 91.0057H18.5088L21.219 83.1818H22.8554L18.6878 94.4318C18.5003 94.9389 18.268 95.3587 17.991 95.6911C17.714 96.0277 17.3923 96.277 17.0258 96.4389C16.6636 96.6009 16.2545 96.6818 15.7986 96.6818ZM24.8465 96.6818V83.1818H26.3039V84.7415H26.4829C26.5937 84.571 26.7471 84.3537 26.9431 84.0895C27.1434 83.821 27.4289 83.5824 27.7996 83.3736C28.1746 83.1605 28.6817 83.054 29.3209 83.054C30.1476 83.054 30.8763 83.2607 31.507 83.674C32.1377 84.0874 32.6299 84.6733 32.9836 85.4318C33.3373 86.1903 33.5141 87.0852 33.5141 88.1165C33.5141 89.1562 33.3373 90.0575 32.9836 90.8203C32.6299 91.5788 32.1398 92.1669 31.5134 92.5845C30.887 92.9979 30.1647 93.2045 29.3465 93.2045C28.7158 93.2045 28.2108 93.1001 27.8316 92.8913C27.4523 92.6783 27.1604 92.4375 26.9559 92.169C26.7513 91.8963 26.5937 91.6705 26.4829 91.4915H26.355V96.6818H24.8465ZM26.3295 88.0909C26.3295 88.8324 26.4381 89.4865 26.6555 90.0533C26.8728 90.6158 27.1903 91.0568 27.6079 91.3764C28.0255 91.6918 28.5368 91.8494 29.142 91.8494C29.7726 91.8494 30.2989 91.6832 30.7208 91.3509C31.1469 91.0142 31.4665 90.5625 31.6796 89.9957C31.8969 89.4247 32.0056 88.7898 32.0056 88.0909C32.0056 87.4006 31.8991 86.7784 31.686 86.2244C31.4772 85.6662 31.1597 85.2251 30.7336 84.9013C30.3117 84.5732 29.7812 84.4091 29.142 84.4091C28.5283 84.4091 28.0127 84.5646 27.5951 84.8757C27.1775 85.1825 26.8621 85.6129 26.6491 86.1669C26.436 86.7166 26.3295 87.358 26.3295 88.0909ZM35.8153 93V83.1818H37.2726V84.6648H37.3749C37.5539 84.179 37.8778 83.7848 38.3465 83.4822C38.8153 83.1797 39.3437 83.0284 39.9317 83.0284C40.0425 83.0284 40.181 83.0305 40.3472 83.0348C40.5134 83.0391 40.6391 83.0455 40.7243 83.054V84.5881C40.6732 84.5753 40.556 84.5561 40.3728 84.5305C40.1938 84.5007 40.0042 84.4858 39.8039 84.4858C39.3266 84.4858 38.9005 84.5859 38.5255 84.7862C38.1547 84.9822 37.8607 85.255 37.6434 85.6044C37.4303 85.9496 37.3238 86.3437 37.3238 86.7869V93H35.8153ZM46.3302 93.2045C45.3841 93.2045 44.5681 92.9957 43.882 92.5781C43.2002 92.1562 42.6739 91.5682 42.3032 90.8139C41.9367 90.0554 41.7535 89.1733 41.7535 88.1676C41.7535 87.1619 41.9367 86.2756 42.3032 85.5085C42.6739 84.7372 43.1895 84.1364 43.8501 83.706C44.5148 83.2713 45.2904 83.054 46.1768 83.054C46.6881 83.054 47.1931 83.1392 47.6917 83.3097C48.1903 83.4801 48.6441 83.7571 49.0532 84.1406C49.4623 84.5199 49.7883 85.0227 50.0312 85.6491C50.2741 86.2756 50.3955 87.0469 50.3955 87.9631V88.6023H42.8273V87.2983H48.8614C48.8614 86.7443 48.7506 86.25 48.529 85.8153C48.3117 85.3807 48.0006 85.0376 47.5958 84.7862C47.1952 84.5348 46.7222 84.4091 46.1768 84.4091C45.5759 84.4091 45.056 84.5582 44.6171 84.8565C44.1824 85.1506 43.8479 85.5341 43.6135 86.0071C43.3792 86.4801 43.262 86.9872 43.262 87.5284V88.3977C43.262 89.1392 43.3898 89.7678 43.6455 90.2834C43.9055 90.7947 44.2655 91.1847 44.7258 91.4531C45.186 91.7173 45.7208 91.8494 46.3302 91.8494C46.7265 91.8494 47.0844 91.794 47.404 91.6832C47.7279 91.5682 48.007 91.3977 48.2414 91.1719C48.4758 90.9418 48.6569 90.6562 48.7847 90.3153L50.2421 90.7244C50.0887 91.2188 49.8309 91.6534 49.4687 92.0284C49.1064 92.3991 48.659 92.6889 48.1263 92.8977C47.5937 93.1023 46.9949 93.2045 46.3302 93.2045ZM59.6448 85.3807L58.2897 85.7642C58.2045 85.5384 58.0787 85.3189 57.9126 85.1058C57.7506 84.8885 57.529 84.7095 57.2478 84.5689C56.9665 84.4283 56.6064 84.358 56.1675 84.358C55.5667 84.358 55.066 84.4964 54.6654 84.7734C54.2691 85.0462 54.0709 85.3935 54.0709 85.8153C54.0709 86.1903 54.2073 86.4865 54.48 86.7038C54.7528 86.9212 55.1789 87.1023 55.7584 87.2472L57.2158 87.6051C58.0937 87.8182 58.7478 88.1442 59.1782 88.5831C59.6086 89.0178 59.8238 89.5781 59.8238 90.2642C59.8238 90.8267 59.6618 91.3295 59.338 91.7727C59.0184 92.2159 58.5709 92.5653 57.9957 92.821C57.4204 93.0767 56.7513 93.2045 55.9885 93.2045C54.9871 93.2045 54.1583 92.9872 53.502 92.5526C52.8458 92.1179 52.4303 91.483 52.2556 90.6477L53.6874 90.2898C53.8238 90.8182 54.0816 91.2145 54.4608 91.4787C54.8444 91.7429 55.3451 91.875 55.963 91.875C56.6661 91.875 57.2243 91.7259 57.6377 91.4276C58.0553 91.125 58.2641 90.7628 58.2641 90.3409C58.2641 90 58.1448 89.7145 57.9062 89.4844C57.6675 89.25 57.301 89.0753 56.8067 88.9602L55.1704 88.5767C54.2712 88.3636 53.6107 88.0334 53.1888 87.5859C52.7712 87.1342 52.5624 86.5696 52.5624 85.892C52.5624 85.3381 52.718 84.848 53.029 84.4219C53.3444 83.9957 53.7726 83.6612 54.3138 83.4183C54.8593 83.1754 55.4772 83.054 56.1675 83.054C57.1391 83.054 57.9019 83.267 58.4559 83.6932C59.0141 84.1193 59.4104 84.6818 59.6448 85.3807ZM69.0491 85.3807L67.694 85.7642C67.6088 85.5384 67.483 85.3189 67.3169 85.1058C67.1549 84.8885 66.9333 84.7095 66.6521 84.5689C66.3708 84.4283 66.0107 84.358 65.5718 84.358C64.971 84.358 64.4703 84.4964 64.0697 84.7734C63.6734 85.0462 63.4752 85.3935 63.4752 85.8153C63.4752 86.1903 63.6116 86.4865 63.8843 86.7038C64.157 86.9212 64.5832 87.1023 65.1627 87.2472L66.6201 87.6051C67.498 87.8182 68.1521 88.1442 68.5825 88.5831C69.0129 89.0178 69.2281 89.5781 69.2281 90.2642C69.2281 90.8267 69.0661 91.3295 68.7423 91.7727C68.4227 92.2159 67.9752 92.5653 67.3999 92.821C66.8247 93.0767 66.1556 93.2045 65.3928 93.2045C64.3914 93.2045 63.5626 92.9872 62.9063 92.5526C62.2501 92.1179 61.8346 91.483 61.6599 90.6477L63.0917 90.2898C63.2281 90.8182 63.4859 91.2145 63.8651 91.4787C64.2487 91.7429 64.7494 91.875 65.3673 91.875C66.0704 91.875 66.6286 91.7259 67.042 91.4276C67.4596 91.125 67.6684 90.7628 67.6684 90.3409C67.6684 90 67.5491 89.7145 67.3105 89.4844C67.0718 89.25 66.7053 89.0753 66.211 88.9602L64.5747 88.5767C63.6755 88.3636 63.015 88.0334 62.5931 87.5859C62.1755 87.1342 61.9667 86.5696 61.9667 85.892C61.9667 85.3381 62.1222 84.848 62.4333 84.4219C62.7487 83.9957 63.1769 83.6612 63.7181 83.4183C64.2636 83.1754 64.8815 83.054 65.5718 83.054C66.5434 83.054 67.3062 83.267 67.8602 83.6932C68.4184 84.1193 68.8147 84.6818 69.0491 85.3807Z" fill="#4B5563"/>
</g>
<defs>
<clipPath id="clip0_316_339">
<rect width="70" height="100" fill="white" transform="translate(0.350586)"/>
</clipPath>
<clipPath id="clip1_316_339">
<rect width="64" height="64" fill="white" transform="translate(3.35059)"/>
</clipPath>
</defs>
</svg>
