<svg width="85" height="100" viewBox="0 0 85 100" fill="none" xmlns="http://www.w3.org/2000/svg">
<g clip-path="url(#clip0_316_315)">
<g clip-path="url(#clip1_316_315)">
<path d="M48.0323 7.13325C45.3343 3.94632 43.0111 0.709589 42.5365 0.0373468C42.4865 -0.0124489 42.4115 -0.0124489 42.3616 0.0373468C41.8869 0.709589 39.5637 3.94632 36.8657 7.13325C13.7084 36.5376 40.513 56.3813 40.513 56.3813L40.7378 56.5306C40.9377 59.5932 41.4373 64 41.4373 64H42.4365H43.4358C43.4358 64 43.9354 59.618 44.1352 56.5306L44.36 56.3565C44.385 56.3565 71.1896 36.5376 48.0323 7.13325ZM42.4365 55.933C42.4365 55.933 41.2374 54.9123 40.9127 54.3893V54.3397L42.3616 22.3209C42.3616 22.2213 42.5115 22.2213 42.5115 22.3209L43.9604 54.3397V54.3893C43.6356 54.9123 42.4365 55.933 42.4365 55.933Z" fill="#00684A"/>
</g>
<path d="M1.90993 79.9091H3.80198L8.25084 90.7756H8.40425L12.8531 79.9091H14.7452V93H13.2622V83.054H13.1344L9.04346 93H7.61164L3.52073 83.054H3.39289V93H1.90993V79.9091ZM21.7077 93.2045C20.8213 93.2045 20.0436 92.9936 19.3746 92.5717C18.7098 92.1499 18.1899 91.5597 17.8149 90.8011C17.4442 90.0426 17.2588 89.1562 17.2588 88.142C17.2588 87.1193 17.4442 86.2266 17.8149 85.4638C18.1899 84.701 18.7098 84.1087 19.3746 83.6868C20.0436 83.2649 20.8213 83.054 21.7077 83.054C22.5941 83.054 23.3696 83.2649 24.0344 83.6868C24.7034 84.1087 25.2233 84.701 25.5941 85.4638C25.9691 86.2266 26.1566 87.1193 26.1566 88.142C26.1566 89.1562 25.9691 90.0426 25.5941 90.8011C25.2233 91.5597 24.7034 92.1499 24.0344 92.5717C23.3696 92.9936 22.5941 93.2045 21.7077 93.2045ZM21.7077 91.8494C22.381 91.8494 22.935 91.6768 23.3696 91.3317C23.8043 90.9865 24.126 90.5327 24.3348 89.9702C24.5436 89.4077 24.648 88.7983 24.648 88.142C24.648 87.4858 24.5436 86.8743 24.3348 86.3075C24.126 85.7408 23.8043 85.2827 23.3696 84.9332C22.935 84.5838 22.381 84.4091 21.7077 84.4091C21.0344 84.4091 20.4804 84.5838 20.0458 84.9332C19.6111 85.2827 19.2894 85.7408 19.0806 86.3075C18.8718 86.8743 18.7674 87.4858 18.7674 88.142C18.7674 88.7983 18.8718 89.4077 19.0806 89.9702C19.2894 90.5327 19.6111 90.9865 20.0458 91.3317C20.4804 91.6768 21.0344 91.8494 21.7077 91.8494ZM29.9678 87.0938V93H28.4593V83.1818H29.9167V84.7159H30.0445C30.2746 84.2173 30.6241 83.8168 31.0928 83.5142C31.5616 83.2074 32.1667 83.054 32.9082 83.054C33.5729 83.054 34.1546 83.1903 34.6532 83.4631C35.1518 83.7315 35.5396 84.1406 35.8165 84.6903C36.0935 85.2358 36.232 85.9261 36.232 86.7614V93H34.7235V86.8636C34.7235 86.0923 34.5232 85.4915 34.1226 85.0611C33.7221 84.6264 33.1724 84.4091 32.4735 84.4091C31.992 84.4091 31.5616 84.5135 31.1823 84.7223C30.8073 84.9311 30.5111 85.2358 30.2938 85.6364C30.0765 86.0369 29.9678 86.5227 29.9678 87.0938ZM42.9517 96.8864C42.223 96.8864 41.5965 96.7926 41.0724 96.6051C40.5483 96.4219 40.1115 96.179 39.762 95.8764C39.4169 95.5781 39.142 95.2585 38.9375 94.9176L40.1392 94.0739C40.2755 94.2528 40.4481 94.4574 40.6569 94.6875C40.8657 94.9219 41.1512 95.1243 41.5135 95.2947C41.8799 95.4695 42.3593 95.5568 42.9517 95.5568C43.7443 95.5568 44.3984 95.3651 44.914 94.9815C45.4296 94.598 45.6875 93.9972 45.6875 93.179V91.1847H45.5596C45.4488 91.3636 45.2911 91.5852 45.0866 91.8494C44.8863 92.1094 44.5965 92.3416 44.2173 92.5462C43.8423 92.7464 43.3352 92.8466 42.696 92.8466C41.9034 92.8466 41.1917 92.6591 40.561 92.2841C39.9346 91.9091 39.4382 91.3636 39.0717 90.6477C38.7095 89.9318 38.5284 89.0625 38.5284 88.0398C38.5284 87.0341 38.7052 86.1584 39.0589 85.4126C39.4126 84.6626 39.9048 84.0831 40.5355 83.674C41.1661 83.2607 41.8948 83.054 42.7215 83.054C43.3608 83.054 43.8679 83.1605 44.2429 83.3736C44.6221 83.5824 44.9119 83.821 45.1122 84.0895C45.3167 84.3537 45.4744 84.571 45.5852 84.7415H45.7386V83.1818H47.196V93.2812C47.196 94.125 47.0042 94.8111 46.6207 95.3395C46.2414 95.8722 45.7301 96.2621 45.0866 96.5092C44.4474 96.7607 43.7358 96.8864 42.9517 96.8864ZM42.9005 91.4915C43.5056 91.4915 44.017 91.353 44.4346 91.076C44.8522 90.799 45.1697 90.4006 45.387 89.8807C45.6044 89.3608 45.713 88.7386 45.713 88.0142C45.713 87.3068 45.6065 86.6825 45.3934 86.1413C45.1804 85.6001 44.865 85.1761 44.4474 84.8693C44.0298 84.5625 43.5142 84.4091 42.9005 84.4091C42.2613 84.4091 41.7286 84.571 41.3025 84.8949C40.8806 85.2187 40.5632 85.6534 40.3501 86.1989C40.1413 86.7443 40.0369 87.3494 40.0369 88.0142C40.0369 88.696 40.1434 89.299 40.3565 89.8232C40.5738 90.343 40.8934 90.7521 41.3153 91.0504C41.7414 91.3445 42.2698 91.4915 42.9005 91.4915ZM53.946 93.2045C53.0596 93.2045 52.2819 92.9936 51.6129 92.5717C50.9481 92.1499 50.4282 91.5597 50.0532 90.8011C49.6825 90.0426 49.4971 89.1562 49.4971 88.142C49.4971 87.1193 49.6825 86.2266 50.0532 85.4638C50.4282 84.701 50.9481 84.1087 51.6129 83.6868C52.2819 83.2649 53.0596 83.054 53.946 83.054C54.8323 83.054 55.6079 83.2649 56.2727 83.6868C56.9417 84.1087 57.4616 84.701 57.8323 85.4638C58.2073 86.2266 58.3948 87.1193 58.3948 88.142C58.3948 89.1562 58.2073 90.0426 57.8323 90.8011C57.4616 91.5597 56.9417 92.1499 56.2727 92.5717C55.6079 92.9936 54.8323 93.2045 53.946 93.2045ZM53.946 91.8494C54.6193 91.8494 55.1733 91.6768 55.6079 91.3317C56.0426 90.9865 56.3643 90.5327 56.5731 89.9702C56.7819 89.4077 56.8863 88.7983 56.8863 88.142C56.8863 87.4858 56.7819 86.8743 56.5731 86.3075C56.3643 85.7408 56.0426 85.2827 55.6079 84.9332C55.1733 84.5838 54.6193 84.4091 53.946 84.4091C53.2727 84.4091 52.7187 84.5838 52.284 84.9332C51.8494 85.2827 51.5277 85.7408 51.3188 86.3075C51.11 86.8743 51.0056 87.4858 51.0056 88.142C51.0056 88.7983 51.11 89.4077 51.3188 89.9702C51.5277 90.5327 51.8494 90.9865 52.284 91.3317C52.7187 91.6768 53.2727 91.8494 53.946 91.8494ZM64.9419 93H60.9021V79.9091H65.1209C66.3908 79.9091 67.4774 80.1712 68.3808 80.6953C69.2842 81.2152 69.9767 81.9631 70.4582 82.9389C70.9398 83.9105 71.1805 85.0739 71.1805 86.429C71.1805 87.7926 70.9376 88.9666 70.4518 89.951C69.966 90.9311 69.2587 91.6854 68.3297 92.2138C67.4007 92.7379 66.2714 93 64.9419 93ZM62.4873 91.5938H64.8396C65.922 91.5938 66.819 91.3849 67.5307 90.9673C68.2423 90.5497 68.7729 89.9553 69.1223 89.1839C69.4717 88.4126 69.6464 87.4943 69.6464 86.429C69.6464 85.3722 69.4739 84.4624 69.1287 83.6996C68.7835 82.9325 68.2679 82.3445 67.5818 81.9354C66.8957 81.522 66.0413 81.3153 65.0186 81.3153H62.4873V91.5938ZM73.8396 93V79.9091H78.4163C79.3283 79.9091 80.0804 80.0668 80.6727 80.3821C81.265 80.6932 81.7061 81.1129 81.9959 81.6413C82.2856 82.1655 82.4305 82.7472 82.4305 83.3864C82.4305 83.9489 82.3304 84.4134 82.1301 84.7798C81.9341 85.1463 81.6741 85.4361 81.3503 85.6491C81.0307 85.8622 80.6834 86.0199 80.3084 86.1222V86.25C80.7089 86.2756 81.1116 86.4162 81.5165 86.6719C81.9213 86.9276 82.2601 87.294 82.5328 87.7713C82.8055 88.2486 82.9419 88.8324 82.9419 89.5227C82.9419 90.179 82.7927 90.7692 82.4945 91.2933C82.1962 91.8175 81.7253 92.233 81.0818 92.5398C80.4383 92.8466 79.601 93 78.5697 93H73.8396ZM75.4248 91.5938H78.5697C79.6052 91.5938 80.3403 91.3935 80.775 90.9929C81.2139 90.5881 81.4334 90.098 81.4334 89.5227C81.4334 89.0795 81.3204 88.6705 81.0946 88.2955C80.8687 87.9162 80.547 87.6136 80.1294 87.3878C79.7118 87.1577 79.2175 87.0426 78.6464 87.0426H75.4248V91.5938ZM75.4248 85.6619H78.3652C78.8425 85.6619 79.2729 85.5682 79.6564 85.3807C80.0442 85.1932 80.351 84.929 80.5768 84.5881C80.807 84.2472 80.922 83.8466 80.922 83.3864C80.922 82.8111 80.7217 82.3232 80.3212 81.9226C79.9206 81.5178 79.2856 81.3153 78.4163 81.3153H75.4248V85.6619Z" fill="#4B5563"/>
</g>
<defs>
<clipPath id="clip0_316_315">
<rect width="84" height="100" fill="white" transform="translate(0.324707)"/>
</clipPath>
<clipPath id="clip1_316_315">
<rect width="29.7674" height="64" fill="white" transform="translate(27.4409)"/>
</clipPath>
</defs>
</svg>
