<svg width="89" height="100" viewBox="0 0 89 100" fill="none" xmlns="http://www.w3.org/2000/svg">
<g clip-path="url(#clip0_316_319)">
<path d="M65.8054 34.608C63.7548 34.6187 61.9788 35.1107 60.4908 35.8454C59.9468 34.7587 59.3948 33.8027 59.3028 33.092C59.1948 32.2627 59.0694 31.7667 59.2001 30.7787C59.3308 29.7907 59.9028 28.3907 59.8948 28.2854C59.8868 28.18 59.7668 27.6774 58.5841 27.668C57.4014 27.66 56.3894 27.896 56.2708 28.208C56.1521 28.52 55.9241 29.2227 55.7828 29.956C55.5761 31.028 53.4214 34.8534 52.1988 36.8534C51.7988 36.072 51.4588 35.384 51.3881 34.84C51.2801 34.0107 51.1548 33.5147 51.2854 32.5267C51.4161 31.5387 51.9881 30.1387 51.9801 30.0334C51.9721 29.928 51.8521 29.4254 50.6694 29.416C49.4868 29.408 48.4748 29.644 48.3561 29.956C48.2374 30.268 48.1094 30.9974 47.8681 31.704C47.6254 32.4094 44.7628 38.7894 44.0121 40.444C43.6294 41.2867 43.2974 41.964 43.0628 42.4254L43.0614 42.4227C43.0614 42.4227 43.0468 42.4534 43.0228 42.5054C42.8214 42.8987 42.7028 43.116 42.7028 43.116C42.7028 43.116 42.7041 43.1187 42.7068 43.124C42.5468 43.4134 42.3761 43.6814 42.2921 43.6814C42.2334 43.6814 42.1148 42.912 42.3174 41.856C42.7441 39.6427 43.7668 36.192 43.7574 36.072C43.7521 36.0107 43.9481 35.4094 43.0894 35.0947C42.2548 34.7894 41.9574 35.2987 41.8814 35.3C41.8081 35.3014 41.7534 35.48 41.7534 35.48C41.7534 35.48 42.6828 31.5987 39.9801 31.5987C38.2894 31.5987 35.9481 33.448 34.7948 35.124C34.0668 35.5214 32.5081 36.372 30.8561 37.28C30.2214 37.6294 29.5734 37.9854 28.9588 38.324C28.9174 38.2774 28.8748 38.232 28.8321 38.1854C25.5534 34.688 19.4948 32.2147 19.7508 27.512C19.8441 25.8027 20.4388 21.3014 31.3948 15.8427C40.3694 11.3707 47.5548 12.6014 48.7961 15.328C50.5694 19.2254 44.9561 26.4667 35.6361 27.512C32.0854 27.9107 30.2148 26.5334 29.7494 26.0214C29.2601 25.4814 29.1868 25.4574 29.0041 25.5587C28.7068 25.724 28.8948 26.2 29.0041 26.484C29.2828 27.208 30.4241 28.492 32.3708 29.132C34.0841 29.6947 38.2534 30.0027 43.2948 28.052C48.9428 25.868 53.3521 19.7907 52.0561 14.712C50.7388 9.5467 42.1734 7.84803 34.0668 10.728C29.2361 12.4427 24.0134 15.1334 20.2574 18.6454C15.7921 22.8214 15.0801 26.4574 15.3734 27.976C16.4161 33.3734 23.8548 36.888 26.8334 39.492C26.6868 39.5734 26.5481 39.6494 26.4228 39.7187C24.9294 40.4574 19.2588 43.4254 17.8401 46.56C16.2308 50.116 18.0961 52.668 19.3308 53.012C23.1561 54.076 27.0814 52.1614 29.1921 49.0147C31.3014 45.8694 31.0441 41.772 30.0761 39.9027C30.0641 39.88 30.0508 39.8574 30.0388 39.8334C30.4241 39.6054 30.8174 39.3734 31.2068 39.144C31.9668 38.6974 32.7134 38.2814 33.3601 37.9294C32.9974 38.9214 32.7321 40.112 32.5948 41.8307C32.4321 43.8494 33.2601 46.4587 34.3428 47.4854C34.8201 47.9374 35.3934 47.948 35.7561 47.948C37.0161 47.948 37.5908 46.9 38.2241 45.66C39.0001 44.14 39.6894 42.3694 39.6894 42.3694C39.6894 42.3694 38.8254 47.1507 41.1801 47.1507C42.0388 47.1507 42.9014 46.0374 43.2868 45.4707C43.2881 45.4774 43.2881 45.48 43.2881 45.48C43.2881 45.48 43.3108 45.4427 43.3548 45.3694C43.4441 45.2334 43.4948 45.1467 43.4948 45.1467C43.4948 45.1467 43.4961 45.1374 43.4988 45.1214C43.8441 44.5227 44.6094 43.1574 45.7561 40.9054C47.2388 37.996 48.6601 34.3507 48.6601 34.3507C48.6601 34.3507 48.7921 35.2414 49.2254 36.716C49.4801 37.5827 50.0214 38.5414 50.4494 39.4614C50.1054 39.9387 49.8948 40.212 49.8948 40.212C49.8948 40.212 49.8961 40.2174 49.9001 40.2267C49.6254 40.592 49.3174 40.9854 48.9948 41.3694C47.8241 42.7627 46.4308 44.3547 46.2441 44.8134C46.0241 45.3547 46.0761 45.752 46.5014 46.0734C46.8121 46.3067 47.3641 46.344 47.9414 46.3054C48.9934 46.2347 49.7321 45.9734 50.0974 45.8147C50.6668 45.6134 51.3294 45.2974 51.9508 44.84C53.0988 43.996 53.7908 42.7894 53.7241 41.1894C53.6868 40.308 53.4068 39.4347 53.0508 38.6107C53.1548 38.4614 53.2588 38.3094 53.3641 38.1574C55.1734 35.512 56.5774 32.6054 56.5774 32.6054C56.5774 32.6054 56.7094 33.496 57.1428 34.9707C57.3614 35.716 57.7948 36.5307 58.1841 37.328C56.4828 38.7107 55.4281 40.3174 55.0614 41.3707C54.3841 43.32 54.9148 44.2027 55.9094 44.404C56.3601 44.4947 56.9974 44.288 57.4761 44.0854C58.0721 43.888 58.7881 43.5587 59.4574 43.0667C60.6054 42.2227 61.7094 41.0414 61.6428 39.4427C61.6121 38.7147 61.4148 37.992 61.1468 37.2987C62.5894 36.6974 64.4561 36.364 66.8348 36.6414C71.9374 37.2374 72.9374 40.4227 72.7468 41.756C72.5548 43.0894 71.4854 43.8227 71.1268 44.044C70.7694 44.2654 70.6601 44.3427 70.6894 44.5067C70.7334 44.7454 70.8988 44.7374 71.2041 44.6854C71.6241 44.6147 73.8828 43.6014 73.9801 41.14C74.1014 38.012 71.1081 34.58 65.8054 34.608ZM26.4761 47.8667C24.7854 49.7107 22.4254 50.4067 21.4121 49.82C20.3188 49.1867 20.7521 46.472 22.8254 44.5147C24.0894 43.3227 25.7214 42.224 26.8041 41.548C27.0508 41.4 27.4121 41.1827 27.8521 40.9187C27.9254 40.8774 27.9668 40.8547 27.9668 40.8547L27.9654 40.852C28.0508 40.8014 28.1374 40.7494 28.2268 40.6947C28.9828 43.48 28.2508 45.932 26.4761 47.8667ZM38.7894 39.4974C38.2014 40.932 36.9694 44.604 36.2188 44.4067C35.5748 44.2374 35.1828 41.4467 36.0908 38.7C36.5468 37.3174 37.5228 35.6654 38.0961 35.024C39.0188 33.992 40.0348 33.6547 40.2814 34.0734C40.5948 34.6067 39.1588 38.5974 38.7894 39.4974ZM48.9614 44.3507C48.7121 44.4814 48.4828 44.5627 48.3774 44.5C48.2988 44.4534 48.4801 44.2814 48.4801 44.2814C48.4801 44.2814 49.7521 42.912 50.2534 42.2894C50.5454 41.9267 50.8828 41.496 51.2508 41.016C51.2534 41.064 51.2548 41.112 51.2548 41.1587C51.2521 42.7987 49.6681 43.9054 48.9614 44.3507ZM56.7974 42.564C56.6108 42.432 56.6428 42.004 57.2548 40.6694C57.4948 40.1454 58.0441 39.264 58.9961 38.4214C59.1068 38.768 59.1734 39.1 59.1721 39.4094C59.1601 41.4734 57.6881 42.244 56.7974 42.564Z" fill="#F06292"/>
<path d="M9.39373 83.1818C9.31703 82.5341 9.00595 82.0312 8.46049 81.6733C7.91504 81.3153 7.24601 81.1364 6.45339 81.1364C5.87385 81.1364 5.36674 81.2301 4.93208 81.4176C4.50169 81.6051 4.16504 81.8629 3.92214 82.1911C3.68351 82.5192 3.56419 82.892 3.56419 83.3097C3.56419 83.6591 3.64728 83.9595 3.81348 84.2109C3.98393 84.4581 4.20126 84.6648 4.46547 84.831C4.72967 84.9929 5.00666 85.1271 5.29643 85.2337C5.5862 85.3359 5.85254 85.419 6.09544 85.483L7.42498 85.8409C7.76589 85.9304 8.14515 86.054 8.56277 86.2116C8.98464 86.3693 9.38734 86.5845 9.77086 86.8572C10.1586 87.1257 10.4782 87.4709 10.7297 87.8928C10.9811 88.3146 11.1068 88.8324 11.1068 89.446C11.1068 90.1534 10.9214 90.7926 10.5507 91.3636C10.1842 91.9347 9.64728 92.3885 8.9399 92.7251C8.23677 93.0618 7.38237 93.2301 6.37669 93.2301C5.43919 93.2301 4.6274 93.0788 3.94132 92.7763C3.2595 92.4737 2.72257 92.0518 2.33052 91.5107C1.94274 90.9695 1.72328 90.3409 1.67214 89.625H3.30851C3.35112 90.1193 3.51731 90.5284 3.80708 90.8523C4.10112 91.1719 4.47186 91.4105 4.9193 91.5682C5.37101 91.7216 5.8568 91.7983 6.37669 91.7983C6.9818 91.7983 7.52512 91.7003 8.00666 91.5043C8.48819 91.304 8.86958 91.027 9.15083 90.6733C9.43208 90.3153 9.57271 89.8977 9.57271 89.4205C9.57271 88.9858 9.45126 88.6321 9.20836 88.3594C8.96547 88.0866 8.64586 87.8651 8.24956 87.6946C7.85325 87.5241 7.42498 87.375 6.96476 87.2472L5.35396 86.7869C4.33123 86.4929 3.52157 86.0732 2.92498 85.5277C2.32839 84.9822 2.0301 84.2685 2.0301 83.3864C2.0301 82.6534 2.22825 82.0142 2.62456 81.4688C3.02512 80.919 3.56206 80.4929 4.23535 80.1903C4.91291 79.8835 5.6693 79.7301 6.50453 79.7301C7.34828 79.7301 8.09828 79.8814 8.75453 80.1839C9.41078 80.4822 9.93066 80.8913 10.3142 81.4112C10.702 81.9311 10.9065 82.5213 10.9278 83.1818H9.39373ZM16.3978 93.2301C15.7757 93.2301 15.211 93.1129 14.7039 92.8786C14.1968 92.6399 13.7941 92.2969 13.4958 91.8494C13.1975 91.3977 13.0484 90.8523 13.0484 90.2131C13.0484 89.6506 13.1592 89.1946 13.3808 88.8452C13.6024 88.4915 13.8985 88.2145 14.2693 88.0142C14.64 87.8139 15.0491 87.6648 15.4965 87.5668C15.9482 87.4645 16.4021 87.3835 16.858 87.3239C17.4546 87.2472 17.9383 87.1896 18.309 87.1513C18.684 87.1087 18.9568 87.0384 19.1272 86.9403C19.3019 86.8423 19.3893 86.6719 19.3893 86.429V86.3778C19.3893 85.7472 19.2167 85.2571 18.8715 84.9077C18.5306 84.5582 18.0129 84.3835 17.3183 84.3835C16.5981 84.3835 16.0335 84.5412 15.6244 84.8565C15.2153 85.1719 14.9276 85.5085 14.7615 85.8665L13.3296 85.3551C13.5853 84.7585 13.9262 84.294 14.3524 83.9616C14.7828 83.625 15.2515 83.3906 15.7586 83.2585C16.27 83.1222 16.7728 83.054 17.2671 83.054C17.5825 83.054 17.9447 83.0923 18.3538 83.169C18.7671 83.2415 19.1656 83.3928 19.5491 83.6229C19.9369 83.853 20.2586 84.2003 20.5143 84.6648C20.77 85.1293 20.8978 85.7514 20.8978 86.5312V93H19.3893V91.6705H19.3126C19.2103 91.8835 19.0399 92.1115 18.8012 92.3544C18.5626 92.5973 18.2451 92.804 17.8488 92.9744C17.4525 93.1449 16.9688 93.2301 16.3978 93.2301ZM16.6279 91.875C17.2245 91.875 17.7274 91.7578 18.1365 91.5234C18.5498 91.2891 18.8609 90.9865 19.0697 90.6158C19.2828 90.245 19.3893 89.8551 19.3893 89.446V88.0653C19.3254 88.142 19.1847 88.2124 18.9674 88.2763C18.7544 88.3359 18.5072 88.3892 18.2259 88.4361C17.949 88.4787 17.6784 88.517 17.4142 88.5511C17.1542 88.581 16.9433 88.6065 16.7813 88.6278C16.3893 88.679 16.0228 88.7621 15.6819 88.8771C15.3453 88.9879 15.0725 89.1562 14.8637 89.3821C14.6592 89.6037 14.5569 89.9062 14.5569 90.2898C14.5569 90.8139 14.7508 91.2102 15.1386 91.4787C15.5306 91.7429 16.0271 91.875 16.6279 91.875ZM30.6057 85.3807L29.2506 85.7642C29.1654 85.5384 29.0397 85.3189 28.8735 85.1058C28.7116 84.8885 28.49 84.7095 28.2087 84.5689C27.9275 84.4283 27.5674 84.358 27.1285 84.358C26.5276 84.358 26.0269 84.4964 25.6263 84.7734C25.23 85.0462 25.0319 85.3935 25.0319 85.8153C25.0319 86.1903 25.1682 86.4865 25.441 86.7038C25.7137 86.9212 26.1398 87.1023 26.7194 87.2472L28.1768 87.6051C29.0546 87.8182 29.7087 88.1442 30.1391 88.5831C30.5695 89.0178 30.7847 89.5781 30.7847 90.2642C30.7847 90.8267 30.6228 91.3295 30.2989 91.7727C29.9793 92.2159 29.5319 92.5653 28.9566 92.821C28.3813 93.0767 27.7123 93.2045 26.9495 93.2045C25.9481 93.2045 25.1192 92.9872 24.463 92.5526C23.8067 92.1179 23.3912 91.483 23.2165 90.6477L24.6483 90.2898C24.7847 90.8182 25.0425 91.2145 25.4218 91.4787C25.8053 91.7429 26.306 91.875 26.9239 91.875C27.627 91.875 28.1853 91.7259 28.5986 91.4276C29.0162 91.125 29.2251 90.7628 29.2251 90.3409C29.2251 90 29.1057 89.7145 28.8671 89.4844C28.6285 89.25 28.262 89.0753 27.7677 88.9602L26.1313 88.5767C25.2322 88.3636 24.5716 88.0334 24.1498 87.5859C23.7322 87.1342 23.5233 86.5696 23.5233 85.892C23.5233 85.3381 23.6789 84.848 23.99 84.4219C24.3053 83.9957 24.7336 83.6612 25.2748 83.4183C25.8202 83.1754 26.4381 83.054 27.1285 83.054C28.1001 83.054 28.8628 83.267 29.4168 83.6932C29.9751 84.1193 30.3714 84.6818 30.6057 85.3807ZM40.01 85.3807L38.6549 85.7642C38.5697 85.5384 38.444 85.3189 38.2778 85.1058C38.1159 84.8885 37.8943 84.7095 37.613 84.5689C37.3318 84.4283 36.9717 84.358 36.5328 84.358C35.9319 84.358 35.4312 84.4964 35.0306 84.7734C34.6343 85.0462 34.4362 85.3935 34.4362 85.8153C34.4362 86.1903 34.5725 86.4865 34.8453 86.7038C35.118 86.9212 35.5441 87.1023 36.1237 87.2472L37.5811 87.6051C38.4589 87.8182 39.113 88.1442 39.5434 88.5831C39.9738 89.0178 40.189 89.5781 40.189 90.2642C40.189 90.8267 40.0271 91.3295 39.7032 91.7727C39.3836 92.2159 38.9362 92.5653 38.3609 92.821C37.7856 93.0767 37.1166 93.2045 36.3538 93.2045C35.3524 93.2045 34.5235 92.9872 33.8673 92.5526C33.211 92.1179 32.7955 91.483 32.6208 90.6477L34.0526 90.2898C34.189 90.8182 34.4468 91.2145 34.8261 91.4787C35.2096 91.7429 35.7103 91.875 36.3282 91.875C37.0313 91.875 37.5896 91.7259 38.0029 91.4276C38.4205 91.125 38.6294 90.7628 38.6294 90.3409C38.6294 90 38.51 89.7145 38.2714 89.4844C38.0328 89.25 37.6663 89.0753 37.172 88.9602L35.5356 88.5767C34.6365 88.3636 33.9759 88.0334 33.5541 87.5859C33.1365 87.1342 32.9276 86.5696 32.9276 85.892C32.9276 85.3381 33.0832 84.848 33.3943 84.4219C33.7096 83.9957 34.1379 83.6612 34.6791 83.4183C35.2245 83.1754 35.8424 83.054 36.5328 83.054C37.5044 83.054 38.2671 83.267 38.8211 83.6932C39.3794 84.1193 39.7757 84.6818 40.01 85.3807ZM47.0876 79.2955L42.8689 94.9688H41.4882L45.7069 79.2955H47.0876ZM56.2394 83.1818C56.1627 82.5341 55.8517 82.0312 55.3062 81.6733C54.7607 81.3153 54.0917 81.1364 53.2991 81.1364C52.7195 81.1364 52.2124 81.2301 51.7778 81.4176C51.3474 81.6051 51.0107 81.8629 50.7678 82.1911C50.5292 82.5192 50.4099 82.892 50.4099 83.3097C50.4099 83.6591 50.493 83.9595 50.6592 84.2109C50.8296 84.4581 51.047 84.6648 51.3112 84.831C51.5754 84.9929 51.8524 85.1271 52.1421 85.2337C52.4319 85.3359 52.6982 85.419 52.9411 85.483L54.2707 85.8409C54.6116 85.9304 54.9909 86.054 55.4085 86.2116C55.8303 86.3693 56.233 86.5845 56.6166 86.8572C57.0044 87.1257 57.324 87.4709 57.5754 87.8928C57.8268 88.3146 57.9525 88.8324 57.9525 89.446C57.9525 90.1534 57.7671 90.7926 57.3964 91.3636C57.0299 91.9347 56.493 92.3885 55.7856 92.7251C55.0825 93.0618 54.2281 93.2301 53.2224 93.2301C52.2849 93.2301 51.4731 93.0788 50.787 92.7763C50.1052 92.4737 49.5683 92.0518 49.1762 91.5107C48.7884 90.9695 48.569 90.3409 48.5178 89.625H50.1542C50.1968 90.1193 50.363 90.5284 50.6528 90.8523C50.9468 91.1719 51.3176 91.4105 51.765 91.5682C52.2167 91.7216 52.7025 91.7983 53.2224 91.7983C53.8275 91.7983 54.3708 91.7003 54.8524 91.5043C55.3339 91.304 55.7153 91.027 55.9965 90.6733C56.2778 90.3153 56.4184 89.8977 56.4184 89.4205C56.4184 88.9858 56.297 88.6321 56.0541 88.3594C55.8112 88.0866 55.4916 87.8651 55.0953 87.6946C54.699 87.5241 54.2707 87.375 53.8105 87.2472L52.1997 86.7869C51.1769 86.4929 50.3673 86.0732 49.7707 85.5277C49.1741 84.9822 48.8758 84.2685 48.8758 83.3864C48.8758 82.6534 49.074 82.0142 49.4703 81.4688C49.8708 80.919 50.4078 80.4929 51.0811 80.1903C51.7586 79.8835 52.515 79.7301 53.3502 79.7301C54.194 79.7301 54.944 79.8814 55.6002 80.1839C56.2565 80.4822 56.7764 80.8913 57.1599 81.4112C57.5477 81.9311 57.7522 82.5213 57.7735 83.1818H56.2394ZM64.343 93.2045C63.4225 93.2045 62.6299 92.9872 61.9651 92.5526C61.3003 92.1179 60.789 91.5192 60.431 90.7564C60.0731 89.9936 59.8941 89.1222 59.8941 88.142C59.8941 87.1449 60.0773 86.2649 60.4438 85.5021C60.8145 84.7351 61.3302 84.1364 61.9907 83.706C62.6555 83.2713 63.431 83.054 64.3174 83.054C65.0077 83.054 65.6299 83.1818 66.1839 83.4375C66.7378 83.6932 67.1917 84.0511 67.5454 84.5114C67.8991 84.9716 68.1185 85.5085 68.2037 86.1222H66.6952C66.5802 85.6747 66.3245 85.2784 65.9282 84.9332C65.5361 84.5838 65.0077 84.4091 64.343 84.4091C63.7549 84.4091 63.2393 84.5625 62.7961 84.8693C62.3572 85.1719 62.0141 85.6001 61.767 86.1541C61.5241 86.7038 61.4026 87.3494 61.4026 88.0909C61.4026 88.8494 61.5219 89.5099 61.7606 90.0724C62.0035 90.6349 62.3444 91.0717 62.7833 91.3828C63.2265 91.6939 63.7464 91.8494 64.343 91.8494C64.735 91.8494 65.0908 91.7812 65.4104 91.6449C65.73 91.5085 66.0006 91.3125 66.2222 91.0568C66.4438 90.8011 66.6015 90.4943 66.6952 90.1364H68.2037C68.1185 90.7159 67.9076 91.2379 67.5709 91.7024C67.2385 92.1626 66.7975 92.5291 66.2478 92.8018C65.7023 93.0703 65.0674 93.2045 64.343 93.2045ZM77.3635 85.3807L76.0084 85.7642C75.9232 85.5384 75.7975 85.3189 75.6313 85.1058C75.4694 84.8885 75.2478 84.7095 74.9665 84.5689C74.6853 84.4283 74.3252 84.358 73.8863 84.358C73.2854 84.358 72.7847 84.4964 72.3841 84.7734C71.9878 85.0462 71.7897 85.3935 71.7897 85.8153C71.7897 86.1903 71.926 86.4865 72.1988 86.7038C72.4715 86.9212 72.8976 87.1023 73.4772 87.2472L74.9346 87.6051C75.8124 87.8182 76.4665 88.1442 76.8969 88.5831C77.3273 89.0178 77.5425 89.5781 77.5425 90.2642C77.5425 90.8267 77.3806 91.3295 77.0567 91.7727C76.7371 92.2159 76.2897 92.5653 75.7144 92.821C75.1391 93.0767 74.4701 93.2045 73.7073 93.2045C72.7059 93.2045 71.877 92.9872 71.2208 92.5526C70.5645 92.1179 70.1491 91.483 69.9743 90.6477L71.4062 90.2898C71.5425 90.8182 71.8003 91.2145 72.1796 91.4787C72.5631 91.7429 73.0638 91.875 73.6817 91.875C74.3849 91.875 74.9431 91.7259 75.3564 91.4276C75.7741 91.125 75.9829 90.7628 75.9829 90.3409C75.9829 90 75.8635 89.7145 75.6249 89.4844C75.3863 89.25 75.0198 89.0753 74.5255 88.9602L72.8891 88.5767C71.99 88.3636 71.3295 88.0334 70.9076 87.5859C70.49 87.1342 70.2812 86.5696 70.2812 85.892C70.2812 85.3381 70.4367 84.848 70.7478 84.4219C71.0631 83.9957 71.4914 83.6612 72.0326 83.4183C72.578 83.1754 73.1959 83.054 73.8863 83.054C74.8579 83.054 75.6207 83.267 76.1746 83.6932C76.7329 84.1193 77.1292 84.6818 77.3635 85.3807ZM86.7678 85.3807L85.4127 85.7642C85.3275 85.5384 85.2018 85.3189 85.0356 85.1058C84.8737 84.8885 84.6521 84.7095 84.3708 84.5689C84.0896 84.4283 83.7295 84.358 83.2906 84.358C82.6897 84.358 82.189 84.4964 81.7884 84.7734C81.3921 85.0462 81.194 85.3935 81.194 85.8153C81.194 86.1903 81.3303 86.4865 81.6031 86.7038C81.8758 86.9212 82.3019 87.1023 82.8815 87.2472L84.3389 87.6051C85.2167 87.8182 85.8708 88.1442 86.3012 88.5831C86.7316 89.0178 86.9468 89.5781 86.9468 90.2642C86.9468 90.8267 86.7849 91.3295 86.461 91.7727C86.1414 92.2159 85.694 92.5653 85.1187 92.821C84.5434 93.0767 83.8744 93.2045 83.1116 93.2045C82.1102 93.2045 81.2813 92.9872 80.6251 92.5526C79.9688 92.1179 79.5534 91.483 79.3786 90.6477L80.8105 90.2898C80.9468 90.8182 81.2046 91.2145 81.5839 91.4787C81.9674 91.7429 82.4681 91.875 83.086 91.875C83.7892 91.875 84.3474 91.7259 84.7607 91.4276C85.1784 91.125 85.3872 90.7628 85.3872 90.3409C85.3872 90 85.2678 89.7145 85.0292 89.4844C84.7906 89.25 84.4241 89.0753 83.9298 88.9602L82.2934 88.5767C81.3943 88.3636 80.7338 88.0334 80.3119 87.5859C79.8943 87.1342 79.6855 86.5696 79.6855 85.892C79.6855 85.3381 79.841 84.848 80.1521 84.4219C80.4674 83.9957 80.8957 83.6612 81.4369 83.4183C81.9823 83.1754 82.6002 83.054 83.2906 83.054C84.2622 83.054 85.0249 83.267 85.5789 83.6932C86.1372 84.1193 86.5335 84.6818 86.7678 85.3807Z" fill="#4B5563"/>
</g>
<defs>
<clipPath id="clip0_316_319">
<rect width="88" height="100" fill="white" transform="translate(0.649414)"/>
</clipPath>
</defs>
</svg>
