<svg width="90" height="100" viewBox="0 0 90 100" fill="none" xmlns="http://www.w3.org/2000/svg">
<g clip-path="url(#clip0_316_348)">
<path fill-rule="evenodd" clip-rule="evenodd" d="M24.438 55.604L22.702 9.37595C22.6474 7.84929 23.8207 6.55729 25.3447 6.46395L56.1554 4.53729L58.5087 5.33329L61.5687 4.19862L64.6567 4.00529C66.2074 3.90662 67.5447 5.08395 67.6447 6.63462C67.6487 6.69462 67.65 6.75595 67.65 6.81729V57.1866C67.6487 58.7426 66.386 60.0026 64.83 60.0013C64.7887 60.0013 64.7474 60 64.7074 59.9986L27.126 58.3106C25.662 58.2453 24.494 57.0693 24.438 55.604Z" fill="#FF4081"/>
<path fill-rule="evenodd" clip-rule="evenodd" d="M61.566 4.19861L56.1566 4.53461L55.894 10.8826C55.8846 11.1146 56.0646 11.3093 56.2966 11.3199C56.394 11.3239 56.4886 11.2946 56.566 11.2359L59.03 9.36528L61.1126 11.0066C61.294 11.1506 61.5593 11.1199 61.702 10.9386C61.7633 10.8599 61.7953 10.7626 61.7926 10.6626L61.5686 4.19994L61.566 4.19861ZM57.3553 25.4506C56.3673 26.2199 48.986 26.7439 48.986 25.6493C49.1433 21.4693 47.2726 21.2866 46.2313 21.2866C45.246 21.2866 43.582 21.5839 43.582 23.8239C43.582 26.1053 46.0126 27.3933 48.866 28.9053C52.918 31.0533 57.826 33.6546 57.826 40.1946C57.826 46.4666 52.73 49.9279 46.234 49.9279C39.5286 49.9279 33.6673 47.2146 34.3286 37.8093C34.5886 36.7066 43.1153 36.9693 43.1153 37.8093C43.0086 41.6906 43.894 42.8319 46.1286 42.8319C47.8446 42.8319 48.6233 41.8853 48.6233 40.2946C48.6233 37.8839 46.0926 36.4613 43.178 34.8266C39.2326 32.6119 34.59 30.0053 34.59 24.0213C34.59 18.0519 38.6953 14.0706 46.0246 14.0706C53.354 14.0706 57.3553 17.9919 57.3553 25.4506Z" fill="white"/>
<path d="M9.41961 83.1818C9.34291 82.5341 9.03183 82.0312 8.48637 81.6733C7.94092 81.3153 7.27188 81.1364 6.47927 81.1364C5.89973 81.1364 5.39262 81.2301 4.95796 81.4176C4.52757 81.6051 4.19092 81.8629 3.94802 82.1911C3.70938 82.5192 3.59007 82.892 3.59007 83.3097C3.59007 83.6591 3.67316 83.9595 3.83936 84.2109C4.00981 84.4581 4.22714 84.6648 4.49134 84.831C4.75555 84.9929 5.03254 85.1271 5.32231 85.2337C5.61208 85.3359 5.87842 85.419 6.12132 85.483L7.45086 85.8409C7.79177 85.9304 8.17103 86.054 8.58865 86.2116C9.01052 86.3693 9.41322 86.5845 9.79674 86.8572C10.1845 87.1257 10.5041 87.4709 10.7555 87.8928C11.007 88.3146 11.1327 88.8324 11.1327 89.446C11.1327 90.1534 10.9473 90.7926 10.5766 91.3636C10.2101 91.9347 9.67316 92.3885 8.96578 92.7251C8.26265 93.0618 7.40825 93.2301 6.40257 93.2301C5.46507 93.2301 4.65328 93.0788 3.9672 92.7763C3.28538 92.4737 2.74845 92.0518 2.3564 91.5107C1.96862 90.9695 1.74916 90.3409 1.69802 89.625H3.33438C3.377 90.1193 3.54319 90.5284 3.83296 90.8523C4.127 91.1719 4.49774 91.4105 4.94518 91.5682C5.39688 91.7216 5.88268 91.7983 6.40257 91.7983C7.00768 91.7983 7.551 91.7003 8.03254 91.5043C8.51407 91.304 8.89546 91.027 9.17671 90.6733C9.45796 90.3153 9.59859 89.8977 9.59859 89.4205C9.59859 88.9858 9.47714 88.6321 9.23424 88.3594C8.99134 88.0866 8.67174 87.8651 8.27544 87.6946C7.87913 87.5241 7.45086 87.375 6.99063 87.2472L5.37984 86.7869C4.35711 86.4929 3.54745 86.0732 2.95086 85.5277C2.35427 84.9822 2.05597 84.2685 2.05597 83.3864C2.05597 82.6534 2.25413 82.0142 2.65044 81.4688C3.051 80.919 3.58794 80.4929 4.26123 80.1903C4.93879 79.8835 5.69518 79.7301 6.53041 79.7301C7.37416 79.7301 8.12416 79.8814 8.78041 80.1839C9.43666 80.4822 9.95654 80.8913 10.3401 81.4112C10.7279 81.9311 10.9324 82.5213 10.9537 83.1818H9.41961ZM17.8044 83.1818V84.4602H12.7163V83.1818H17.8044ZM14.1993 80.8295H15.7078V90.1875C15.7078 90.6136 15.7696 90.9332 15.8932 91.1463C16.021 91.3551 16.1829 91.4957 16.379 91.5682C16.5792 91.6364 16.7902 91.6705 17.0118 91.6705C17.178 91.6705 17.3143 91.6619 17.4209 91.6449C17.5274 91.6236 17.6126 91.6065 17.6765 91.5938L17.9834 92.9489C17.8811 92.9872 17.7383 93.0256 17.5551 93.0639C17.3718 93.1065 17.1396 93.1278 16.8584 93.1278C16.4322 93.1278 16.0146 93.0362 15.6055 92.853C15.2007 92.6697 14.864 92.3906 14.5956 92.0156C14.3314 91.6406 14.1993 91.1676 14.1993 90.5966V80.8295ZM23.9567 93.2045C23.0704 93.2045 22.2927 92.9936 21.6236 92.5717C20.9589 92.1499 20.439 91.5597 20.064 90.8011C19.6932 90.0426 19.5079 89.1562 19.5079 88.142C19.5079 87.1193 19.6932 86.2266 20.064 85.4638C20.439 84.701 20.9589 84.1087 21.6236 83.6868C22.2927 83.2649 23.0704 83.054 23.9567 83.054C24.8431 83.054 25.6187 83.2649 26.2834 83.6868C26.9525 84.1087 27.4723 84.701 27.8431 85.4638C28.2181 86.2266 28.4056 87.1193 28.4056 88.142C28.4056 89.1562 28.2181 90.0426 27.8431 90.8011C27.4723 91.5597 26.9525 92.1499 26.2834 92.5717C25.6187 92.9936 24.8431 93.2045 23.9567 93.2045ZM23.9567 91.8494C24.63 91.8494 25.184 91.6768 25.6187 91.3317C26.0533 90.9865 26.375 90.5327 26.5839 89.9702C26.7927 89.4077 26.8971 88.7983 26.8971 88.142C26.8971 87.4858 26.7927 86.8743 26.5839 86.3075C26.375 85.7408 26.0533 85.2827 25.6187 84.9332C25.184 84.5838 24.63 84.4091 23.9567 84.4091C23.2834 84.4091 22.7294 84.5838 22.2948 84.9332C21.8601 85.2827 21.5384 85.7408 21.3296 86.3075C21.1208 86.8743 21.0164 87.4858 21.0164 88.142C21.0164 88.7983 21.1208 89.4077 21.3296 89.9702C21.5384 90.5327 21.8601 90.9865 22.2948 91.3317C22.7294 91.6768 23.2834 91.8494 23.9567 91.8494ZM30.7083 93V83.1818H32.1657V84.6648H32.268C32.447 84.179 32.7708 83.7848 33.2396 83.4822C33.7083 83.1797 34.2367 83.0284 34.8248 83.0284C34.9356 83.0284 35.0741 83.0305 35.2403 83.0348C35.4065 83.0391 35.5322 83.0455 35.6174 83.054V84.5881C35.5663 84.5753 35.4491 84.5561 35.2658 84.5305C35.0869 84.5007 34.8972 84.4858 34.697 84.4858C34.2197 84.4858 33.7935 84.5859 33.4185 84.7862C33.0478 84.9822 32.7538 85.255 32.5364 85.6044C32.3234 85.9496 32.2168 86.3437 32.2168 86.7869V93H30.7083ZM38.676 96.6818C38.4203 96.6818 38.1923 96.6605 37.9921 96.6179C37.7918 96.5795 37.6533 96.5412 37.5766 96.5028L37.9601 95.1733C38.3266 95.267 38.6504 95.3011 38.9317 95.2756C39.2129 95.25 39.4622 95.1243 39.6796 94.8984C39.9011 94.6768 40.1036 94.3168 40.2868 93.8182L40.568 93.0511L36.9374 83.1818H38.5737L41.284 91.0057H41.3862L44.0965 83.1818H45.7328L41.5652 94.4318C41.3777 94.9389 41.1455 95.3587 40.8685 95.6911C40.5915 96.0277 40.2698 96.277 39.9033 96.4389C39.5411 96.6009 39.132 96.6818 38.676 96.6818ZM47.9285 93V79.9091H49.437V84.7415H49.5649C49.6756 84.571 49.8291 84.3537 50.0251 84.0895C50.2254 83.821 50.5109 83.5824 50.8816 83.3736C51.2566 83.1605 51.7637 83.054 52.4029 83.054C53.2296 83.054 53.9583 83.2607 54.589 83.674C55.2197 84.0874 55.7119 84.6733 56.0656 85.4318C56.4193 86.1903 56.5961 87.0852 56.5961 88.1165C56.5961 89.1562 56.4193 90.0575 56.0656 90.8203C55.7119 91.5788 55.2218 92.1669 54.5954 92.5845C53.969 92.9979 53.2467 93.2045 52.4285 93.2045C51.7978 93.2045 51.2928 93.1001 50.9136 92.8913C50.5343 92.6783 50.2424 92.4375 50.0379 92.169C49.8333 91.8963 49.6756 91.6705 49.5649 91.4915H49.3859V93H47.9285ZM49.4114 88.0909C49.4114 88.8324 49.5201 89.4865 49.7374 90.0533C49.9548 90.6158 50.2722 91.0568 50.6899 91.3764C51.1075 91.6918 51.6188 91.8494 52.2239 91.8494C52.8546 91.8494 53.3809 91.6832 53.8028 91.3509C54.2289 91.0142 54.5485 90.5625 54.7616 89.9957C54.9789 89.4247 55.0876 88.7898 55.0876 88.0909C55.0876 87.4006 54.981 86.7784 54.768 86.2244C54.5592 85.6662 54.2417 85.2251 53.8156 84.9013C53.3937 84.5732 52.8631 84.4091 52.2239 84.4091C51.6103 84.4091 51.0947 84.5646 50.6771 84.8757C50.2595 85.1825 49.9441 85.6129 49.731 86.1669C49.518 86.7166 49.4114 87.358 49.4114 88.0909ZM62.8923 93.2045C62.0059 93.2045 61.2282 92.9936 60.5592 92.5717C59.8944 92.1499 59.3745 91.5597 58.9995 90.8011C58.6288 90.0426 58.4434 89.1562 58.4434 88.142C58.4434 87.1193 58.6288 86.2266 58.9995 85.4638C59.3745 84.701 59.8944 84.1087 60.5592 83.6868C61.2282 83.2649 62.0059 83.054 62.8923 83.054C63.7786 83.054 64.5542 83.2649 65.219 83.6868C65.888 84.1087 66.4079 84.701 66.7786 85.4638C67.1536 86.2266 67.3411 87.1193 67.3411 88.142C67.3411 89.1562 67.1536 90.0426 66.7786 90.8011C66.4079 91.5597 65.888 92.1499 65.219 92.5717C64.5542 92.9936 63.7786 93.2045 62.8923 93.2045ZM62.8923 91.8494C63.5656 91.8494 64.1195 91.6768 64.5542 91.3317C64.9889 90.9865 65.3106 90.5327 65.5194 89.9702C65.7282 89.4077 65.8326 88.7983 65.8326 88.142C65.8326 87.4858 65.7282 86.8743 65.5194 86.3075C65.3106 85.7408 64.9889 85.2827 64.5542 84.9332C64.1195 84.5838 63.5656 84.4091 62.8923 84.4091C62.219 84.4091 61.665 84.5838 61.2303 84.9332C60.7957 85.2827 60.4739 85.7408 60.2651 86.3075C60.0563 86.8743 59.9519 87.4858 59.9519 88.142C59.9519 88.7983 60.0563 89.4077 60.2651 89.9702C60.4739 90.5327 60.7957 90.9865 61.2303 91.3317C61.665 91.6768 62.219 91.8494 62.8923 91.8494ZM73.6325 93.2045C72.7461 93.2045 71.9684 92.9936 71.2994 92.5717C70.6346 92.1499 70.1147 91.5597 69.7397 90.8011C69.369 90.0426 69.1836 89.1562 69.1836 88.142C69.1836 87.1193 69.369 86.2266 69.7397 85.4638C70.1147 84.701 70.6346 84.1087 71.2994 83.6868C71.9684 83.2649 72.7461 83.054 73.6325 83.054C74.5189 83.054 75.2944 83.2649 75.9592 83.6868C76.6282 84.1087 77.1481 84.701 77.5189 85.4638C77.8939 86.2266 78.0814 87.1193 78.0814 88.142C78.0814 89.1562 77.8939 90.0426 77.5189 90.8011C77.1481 91.5597 76.6282 92.1499 75.9592 92.5717C75.2944 92.9936 74.5189 93.2045 73.6325 93.2045ZM73.6325 91.8494C74.3058 91.8494 74.8598 91.6768 75.2944 91.3317C75.7291 90.9865 76.0508 90.5327 76.2596 89.9702C76.4684 89.4077 76.5728 88.7983 76.5728 88.142C76.5728 87.4858 76.4684 86.8743 76.2596 86.3075C76.0508 85.7408 75.7291 85.2827 75.2944 84.9332C74.8598 84.5838 74.3058 84.4091 73.6325 84.4091C72.9592 84.4091 72.4052 84.5838 71.9706 84.9332C71.5359 85.2827 71.2142 85.7408 71.0054 86.3075C70.7966 86.8743 70.6922 87.4858 70.6922 88.142C70.6922 88.7983 70.7966 89.4077 71.0054 89.9702C71.2142 90.5327 71.5359 90.9865 71.9706 91.3317C72.4052 91.6768 72.9592 91.8494 73.6325 91.8494ZM81.7903 89.4205L81.7648 87.554H82.0716L86.3671 83.1818H88.2335L83.6568 87.8097H83.529L81.7903 89.4205ZM80.3841 93V79.9091H81.8926V93H80.3841ZM86.6227 93L82.7875 88.142L83.8614 87.0938L88.5404 93H86.6227Z" fill="#4B5563"/>
</g>
<defs>
<clipPath id="clip0_316_348">
<rect width="89" height="100" fill="white" transform="translate(0.675293)"/>
</clipPath>
</defs>
</svg>
