<svg width="106" height="100" viewBox="0 0 106 100" fill="none" xmlns="http://www.w3.org/2000/svg">
<g clip-path="url(#clip0_316_323)">
<g clip-path="url(#clip1_316_323)">
<mask id="mask0_316_323" style="mask-type:luminance" maskUnits="userSpaceOnUse" x="0" y="0" width="106" height="63">
<path d="M0.974121 0H105.701V62.8364H0.974121V0Z" fill="white"/>
</mask>
<g mask="url(#mask0_316_323)">
<path fill-rule="evenodd" clip-rule="evenodd" d="M53.3378 0C39.3741 0 30.6468 6.98182 27.1559 20.9455C32.3923 13.9636 38.5014 11.3455 45.4832 13.0909C49.4667 14.0858 52.3138 16.9775 55.4653 20.1755C60.5988 25.3867 66.5412 31.4182 79.5196 31.4182C93.4832 31.4182 102.21 24.4364 105.701 10.4727C100.465 17.4545 94.3559 20.0727 87.3741 18.3273C83.3906 17.3324 80.5436 14.4407 77.3921 11.2427C72.2585 6.03151 66.3162 0 53.3378 0ZM27.1559 31.4182C13.1923 31.4182 4.46503 38.4 0.974121 52.3636C6.21048 45.3818 12.3196 42.7636 19.3014 44.5091C23.2849 45.5059 26.1319 48.3956 29.2835 51.5937C34.417 56.8048 40.3593 62.8364 53.3378 62.8364C67.3014 62.8364 76.0287 55.8545 79.5196 41.8909C74.2832 48.8727 68.1741 51.4909 61.1923 49.7455C57.2088 48.7505 54.3618 45.8589 51.2102 42.6608C46.0767 37.4497 40.1344 31.4182 27.1559 31.4182Z" fill="#38BDF8"/>
</g>
</g>
<path d="M4.70696 81.3153V79.9091H14.5251V81.3153H10.4087V93H8.82344V81.3153H4.70696ZM18.3204 93.2301C17.6983 93.2301 17.1336 93.1129 16.6265 92.8786C16.1194 92.6399 15.7167 92.2969 15.4184 91.8494C15.1201 91.3977 14.971 90.8523 14.971 90.2131C14.971 89.6506 15.0818 89.1946 15.3034 88.8452C15.525 88.4915 15.8211 88.2145 16.1919 88.0142C16.5626 87.8139 16.9717 87.6648 17.4191 87.5668C17.8708 87.4645 18.3247 87.3835 18.7807 87.3239C19.3772 87.2472 19.8609 87.1896 20.2316 87.1513C20.6066 87.1087 20.8794 87.0384 21.0498 86.9403C21.2245 86.8423 21.3119 86.6719 21.3119 86.429V86.3778C21.3119 85.7472 21.1393 85.2571 20.7941 84.9077C20.4532 84.5582 19.9355 84.3835 19.2409 84.3835C18.5207 84.3835 17.9561 84.5412 17.547 84.8565C17.1379 85.1719 16.8503 85.5085 16.6841 85.8665L15.2522 85.3551C15.5079 84.7585 15.8488 84.294 16.275 83.9616C16.7054 83.625 17.1741 83.3906 17.6812 83.2585C18.1926 83.1222 18.6954 83.054 19.1897 83.054C19.5051 83.054 19.8673 83.0923 20.2764 83.169C20.6897 83.2415 21.0882 83.3928 21.4717 83.6229C21.8595 83.853 22.1812 84.2003 22.4369 84.6648C22.6926 85.1293 22.8204 85.7514 22.8204 86.5312V93H21.3119V91.6705H21.2352C21.1329 91.8835 20.9625 92.1115 20.7238 92.3544C20.4852 92.5973 20.1677 92.804 19.7714 92.9744C19.3751 93.1449 18.8914 93.2301 18.3204 93.2301ZM18.5505 91.875C19.1471 91.875 19.65 91.7578 20.0591 91.5234C20.4724 91.2891 20.7835 90.9865 20.9923 90.6158C21.2054 90.245 21.3119 89.8551 21.3119 89.446V88.0653C21.248 88.142 21.1074 88.2124 20.89 88.2763C20.677 88.3359 20.4298 88.3892 20.1485 88.4361C19.8716 88.4787 19.601 88.517 19.3368 88.5511C19.0768 88.581 18.8659 88.6065 18.7039 88.6278C18.3119 88.679 17.9454 88.7621 17.6045 88.8771C17.2679 88.9879 16.9951 89.1562 16.7863 89.3821C16.5818 89.6037 16.4795 89.9062 16.4795 90.2898C16.4795 90.8139 16.6734 91.2102 17.0612 91.4787C17.4532 91.7429 17.9497 91.875 18.5505 91.875ZM25.5738 93V83.1818H27.0823V93H25.5738ZM26.3408 81.5455C26.0468 81.5455 25.7933 81.4453 25.5802 81.245C25.3714 81.0447 25.267 80.804 25.267 80.5227C25.267 80.2415 25.3714 80.0007 25.5802 79.8004C25.7933 79.6001 26.0468 79.5 26.3408 79.5C26.6349 79.5 26.8863 79.6001 27.0951 79.8004C27.3082 80.0007 27.4147 80.2415 27.4147 80.5227C27.4147 80.804 27.3082 81.0447 27.0951 81.245C26.8863 81.4453 26.6349 81.5455 26.3408 81.5455ZM31.3538 79.9091V93H29.8453V79.9091H31.3538ZM36.3412 93L33.3497 83.1818H34.9349L37.0571 90.6989H37.1594L39.256 83.1818H40.8668L42.9378 90.6733H43.0401L45.1622 83.1818H46.7474L43.756 93H42.273L40.1253 85.4574H39.9719L37.8242 93H36.3412ZM48.7418 93V83.1818H50.2503V93H48.7418ZM49.5088 81.5455C49.2148 81.5455 48.9612 81.4453 48.7482 81.245C48.5394 81.0447 48.4349 80.804 48.4349 80.5227C48.4349 80.2415 48.5394 80.0007 48.7482 79.8004C48.9612 79.6001 49.2148 79.5 49.5088 79.5C49.8028 79.5 50.0543 79.6001 50.2631 79.8004C50.4761 80.0007 50.5827 80.2415 50.5827 80.5227C50.5827 80.804 50.4761 81.0447 50.2631 81.245C50.0543 81.4453 49.8028 81.5455 49.5088 81.5455ZM54.5218 87.0938V93H53.0133V83.1818H54.4706V84.7159H54.5985C54.8286 84.2173 55.178 83.8168 55.6468 83.5142C56.1155 83.2074 56.7206 83.054 57.4621 83.054C58.1269 83.054 58.7086 83.1903 59.2071 83.4631C59.7057 83.7315 60.0935 84.1406 60.3705 84.6903C60.6475 85.2358 60.786 85.9261 60.786 86.7614V93H59.2775V86.8636C59.2775 86.0923 59.0772 85.4915 58.6766 85.0611C58.276 84.6264 57.7263 84.4091 57.0275 84.4091C56.5459 84.4091 56.1155 84.5135 55.7363 84.7223C55.3613 84.9311 55.0651 85.2358 54.8478 85.6364C54.6304 86.0369 54.5218 86.5227 54.5218 87.0938ZM67.2499 93.2045C66.4318 93.2045 65.7095 92.9979 65.083 92.5845C64.4566 92.1669 63.9666 91.5788 63.6129 90.8203C63.2592 90.0575 63.0823 89.1562 63.0823 88.1165C63.0823 87.0852 63.2592 86.1903 63.6129 85.4318C63.9666 84.6733 64.4587 84.0874 65.0894 83.674C65.7201 83.2607 66.4488 83.054 67.2755 83.054C67.9147 83.054 68.4197 83.1605 68.7904 83.3736C69.1654 83.5824 69.4509 83.821 69.647 84.0895C69.8472 84.3537 70.0028 84.571 70.1136 84.7415H70.2414V79.9091H71.7499V93H70.2925V91.4915H70.1136C70.0028 91.6705 69.8451 91.8963 69.6406 92.169C69.436 92.4375 69.1441 92.6783 68.7648 92.8913C68.3856 93.1001 67.8806 93.2045 67.2499 93.2045ZM67.4545 91.8494C68.0596 91.8494 68.571 91.6918 68.9886 91.3764C69.4062 91.0568 69.7237 90.6158 69.941 90.0533C70.1583 89.4865 70.267 88.8324 70.267 88.0909C70.267 87.358 70.1604 86.7166 69.9474 86.1669C69.7343 85.6129 69.419 85.1825 69.0014 84.8757C68.5837 84.5646 68.0681 84.4091 67.4545 84.4091C66.8153 84.4091 66.2826 84.5732 65.8565 84.9013C65.4346 85.2251 65.1171 85.6662 64.9041 86.2244C64.6952 86.7784 64.5908 87.4006 64.5908 88.0909C64.5908 88.7898 64.6974 89.4247 64.9104 89.9957C65.1278 90.5625 65.4474 91.0142 65.8693 91.3509C66.2954 91.6832 66.8238 91.8494 67.4545 91.8494ZM78.7109 93.2045C77.7904 93.2045 76.9978 92.9872 76.333 92.5526C75.6683 92.1179 75.1569 91.5192 74.7989 90.7564C74.441 89.9936 74.262 89.1222 74.262 88.142C74.262 87.1449 74.4452 86.2649 74.8117 85.5021C75.1825 84.7351 75.6981 84.1364 76.3586 83.706C77.0234 83.2713 77.7989 83.054 78.6853 83.054C79.3756 83.054 79.9978 83.1818 80.5518 83.4375C81.1058 83.6932 81.5596 84.0511 81.9133 84.5114C82.267 84.9716 82.4864 85.5085 82.5717 86.1222H81.0631C80.9481 85.6747 80.6924 85.2784 80.2961 84.9332C79.9041 84.5838 79.3756 84.4091 78.7109 84.4091C78.1228 84.4091 77.6072 84.5625 77.164 84.8693C76.7251 85.1719 76.382 85.6001 76.1349 86.1541C75.892 86.7038 75.7705 87.3494 75.7705 88.0909C75.7705 88.8494 75.8898 89.5099 76.1285 90.0724C76.3714 90.6349 76.7123 91.0717 77.1512 91.3828C77.5944 91.6939 78.1143 91.8494 78.7109 91.8494C79.1029 91.8494 79.4587 91.7812 79.7783 91.6449C80.0979 91.5085 80.3685 91.3125 80.5901 91.0568C80.8117 90.8011 80.9694 90.4943 81.0631 90.1364H82.5717C82.4864 90.7159 82.2755 91.2379 81.9389 91.7024C81.6065 92.1626 81.1654 92.5291 80.6157 92.8018C80.0702 93.0703 79.4353 93.2045 78.7109 93.2045ZM91.7315 85.3807L90.3764 85.7642C90.2911 85.5384 90.1654 85.3189 89.9992 85.1058C89.8373 84.8885 89.6157 84.7095 89.3345 84.5689C89.0532 84.4283 88.6931 84.358 88.2542 84.358C87.6533 84.358 87.1526 84.4964 86.7521 84.7734C86.3558 85.0462 86.1576 85.3935 86.1576 85.8153C86.1576 86.1903 86.294 86.4865 86.5667 86.7038C86.8394 86.9212 87.2656 87.1023 87.8451 87.2472L89.3025 87.6051C90.1803 87.8182 90.8345 88.1442 91.2648 88.5831C91.6952 89.0178 91.9104 89.5781 91.9104 90.2642C91.9104 90.8267 91.7485 91.3295 91.4246 91.7727C91.105 92.2159 90.6576 92.5653 90.0823 92.821C89.507 93.0767 88.838 93.2045 88.0752 93.2045C87.0738 93.2045 86.245 92.9872 85.5887 92.5526C84.9325 92.1179 84.517 91.483 84.3423 90.6477L85.7741 90.2898C85.9104 90.8182 86.1683 91.2145 86.5475 91.4787C86.931 91.7429 87.4318 91.875 88.0496 91.875C88.7528 91.875 89.311 91.7259 89.7244 91.4276C90.142 91.125 90.3508 90.7628 90.3508 90.3409C90.3508 90 90.2315 89.7145 89.9928 89.4844C89.7542 89.25 89.3877 89.0753 88.8934 88.9602L87.257 88.5767C86.3579 88.3636 85.6974 88.0334 85.2755 87.5859C84.8579 87.1342 84.6491 86.5696 84.6491 85.892C84.6491 85.3381 84.8046 84.848 85.1157 84.4219C85.431 83.9957 85.8593 83.6612 86.4005 83.4183C86.946 83.1754 87.5639 83.054 88.2542 83.054C89.2258 83.054 89.9886 83.267 90.5425 83.6932C91.1008 84.1193 91.4971 84.6818 91.7315 85.3807ZM101.136 85.3807L99.7807 85.7642C99.6954 85.5384 99.5697 85.3189 99.4035 85.1058C99.2416 84.8885 99.02 84.7095 98.7387 84.5689C98.4575 84.4283 98.0974 84.358 97.6585 84.358C97.0576 84.358 96.5569 84.4964 96.1564 84.7734C95.7601 85.0462 95.5619 85.3935 95.5619 85.8153C95.5619 86.1903 95.6983 86.4865 95.971 86.7038C96.2437 86.9212 96.6699 87.1023 97.2494 87.2472L98.7068 87.6051C99.5846 87.8182 100.239 88.1442 100.669 88.5831C101.1 89.0178 101.315 89.5781 101.315 90.2642C101.315 90.8267 101.153 91.3295 100.829 91.7727C100.509 92.2159 100.062 92.5653 99.4866 92.821C98.9113 93.0767 98.2423 93.2045 97.4795 93.2045C96.4781 93.2045 95.6493 92.9872 94.993 92.5526C94.3368 92.1179 93.9213 91.483 93.7466 90.6477L95.1784 90.2898C95.3147 90.8182 95.5726 91.2145 95.9518 91.4787C96.3353 91.7429 96.836 91.875 97.4539 91.875C98.1571 91.875 98.7153 91.7259 99.1287 91.4276C99.5463 91.125 99.7551 90.7628 99.7551 90.3409C99.7551 90 99.6358 89.7145 99.3971 89.4844C99.1585 89.25 98.792 89.0753 98.2977 88.9602L96.6613 88.5767C95.7622 88.3636 95.1017 88.0334 94.6798 87.5859C94.2622 87.1342 94.0534 86.5696 94.0534 85.892C94.0534 85.3381 94.2089 84.848 94.52 84.4219C94.8353 83.9957 95.2636 83.6612 95.8048 83.4183C96.3503 83.1754 96.9682 83.054 97.6585 83.054C98.6301 83.054 99.3929 83.267 99.9468 83.6932C100.505 84.1193 100.901 84.6818 101.136 85.3807Z" fill="#4B5563"/>
</g>
<defs>
<clipPath id="clip0_316_323">
<rect width="104.727" height="100" fill="white" transform="translate(0.974121)"/>
</clipPath>
<clipPath id="clip1_316_323">
<rect width="104.727" height="64" fill="white" transform="translate(0.974121)"/>
</clipPath>
</defs>
</svg>
